<mxfile host="app.diagrams.net" agent="Mozilla/5.0 (Windows NT 10.0; Win64; x64) AppleWebKit/537.36 (KHTML, like Gecko) Chrome/132.0.0.0 Safari/537.36" version="25.0.3">
  <diagram name="Page-1" id="MLgpsxT2Gv6ohk0WQi5u">
    <mxGraphModel grid="1" page="1" gridSize="10" guides="1" tooltips="1" connect="1" arrows="1" fold="1" pageScale="1" pageWidth="850" pageHeight="1100" math="0" shadow="0">
      <root>
        <mxCell id="0" />
        <mxCell id="1" parent="0" />
        <mxCell id="8bxy5ocWBp-4JKRfcmko-1" value="SideQuest" style="ellipse;whiteSpace=wrap;html=1;" vertex="1" parent="1">
          <mxGeometry x="365" y="170" width="120" height="140" as="geometry" />
        </mxCell>
        <mxCell id="8bxy5ocWBp-4JKRfcmko-2" value="User&amp;nbsp;" style="rounded=0;whiteSpace=wrap;html=1;" vertex="1" parent="1">
          <mxGeometry x="60" y="180" width="130" height="120" as="geometry" />
        </mxCell>
        <mxCell id="8bxy5ocWBp-4JKRfcmko-3" value="Google Maps" style="whiteSpace=wrap;html=1;aspect=fixed;" vertex="1" parent="1">
          <mxGeometry x="670" y="175" width="130" height="130" as="geometry" />
        </mxCell>
        <mxCell id="8bxy5ocWBp-4JKRfcmko-4" value="" style="endArrow=classic;html=1;rounded=0;exitX=0.042;exitY=0.25;exitDx=0;exitDy=0;exitPerimeter=0;" edge="1" parent="1">
          <mxGeometry width="50" height="50" relative="1" as="geometry">
            <mxPoint x="368.52" y="200" as="sourcePoint" />
            <mxPoint x="191.48" y="200" as="targetPoint" />
          </mxGeometry>
        </mxCell>
        <mxCell id="8bxy5ocWBp-4JKRfcmko-5" value="Traffic" style="text;html=1;align=center;verticalAlign=middle;resizable=0;points=[];autosize=1;strokeColor=none;fillColor=none;" vertex="1" parent="1">
          <mxGeometry x="220" y="178" width="60" height="30" as="geometry" />
        </mxCell>
        <mxCell id="8bxy5ocWBp-4JKRfcmko-7" value="" style="endArrow=classic;html=1;rounded=0;exitX=0;exitY=0.5;exitDx=0;exitDy=0;entryX=1;entryY=0.5;entryDx=0;entryDy=0;" edge="1" parent="1">
          <mxGeometry width="50" height="50" relative="1" as="geometry">
            <mxPoint x="365" y="220" as="sourcePoint" />
            <mxPoint x="190" y="220" as="targetPoint" />
          </mxGeometry>
        </mxCell>
        <mxCell id="8bxy5ocWBp-4JKRfcmko-8" value="Pinned Destination" style="text;html=1;align=center;verticalAlign=middle;resizable=0;points=[];autosize=1;strokeColor=none;fillColor=none;" vertex="1" parent="1">
          <mxGeometry x="190" y="200" width="120" height="30" as="geometry" />
        </mxCell>
        <mxCell id="8bxy5ocWBp-4JKRfcmko-9" value="" style="endArrow=classic;html=1;rounded=0;entryX=1.035;entryY=0.675;entryDx=0;entryDy=0;entryPerimeter=0;exitX=0;exitY=0.646;exitDx=0;exitDy=0;exitPerimeter=0;" edge="1" parent="1">
          <mxGeometry width="50" height="50" relative="1" as="geometry">
            <mxPoint x="365" y="267.00000000000006" as="sourcePoint" />
            <mxPoint x="194.54999999999995" y="267.56" as="targetPoint" />
            <Array as="points" />
          </mxGeometry>
        </mxCell>
        <mxCell id="8bxy5ocWBp-4JKRfcmko-10" value="" style="endArrow=classic;html=1;rounded=0;exitX=1.038;exitY=0.908;exitDx=0;exitDy=0;exitPerimeter=0;entryX=0;entryY=1;entryDx=0;entryDy=0;" edge="1" parent="1">
          <mxGeometry width="50" height="50" relative="1" as="geometry">
            <mxPoint x="190.00000000000006" y="299.00000000000006" as="sourcePoint" />
            <mxPoint x="377.63359312880704" y="299.5374746830585" as="targetPoint" />
            <Array as="points">
              <mxPoint x="325.06" y="299.04" />
            </Array>
          </mxGeometry>
        </mxCell>
        <mxCell id="8bxy5ocWBp-4JKRfcmko-11" value="KeyWords" style="text;html=1;align=center;verticalAlign=middle;resizable=0;points=[];autosize=1;strokeColor=none;fillColor=none;" vertex="1" parent="1">
          <mxGeometry x="230" y="280" width="80" height="30" as="geometry" />
        </mxCell>
        <mxCell id="8bxy5ocWBp-4JKRfcmko-12" value="Alternative Scenic Routes" style="text;html=1;align=center;verticalAlign=middle;resizable=0;points=[];autosize=1;strokeColor=none;fillColor=none;" vertex="1" parent="1">
          <mxGeometry x="200" y="240" width="160" height="30" as="geometry" />
        </mxCell>
        <mxCell id="8bxy5ocWBp-4JKRfcmko-14" value="" style="endArrow=classic;html=1;rounded=0;" edge="1" parent="1">
          <mxGeometry width="50" height="50" relative="1" as="geometry">
            <mxPoint x="190" y="230" as="sourcePoint" />
            <mxPoint x="370" y="230" as="targetPoint" />
          </mxGeometry>
        </mxCell>
        <mxCell id="8bxy5ocWBp-4JKRfcmko-16" value="" style="endArrow=classic;html=1;rounded=0;exitX=0.208;exitY=0.071;exitDx=0;exitDy=0;exitPerimeter=0;entryX=0.919;entryY=-0.017;entryDx=0;entryDy=0;entryPerimeter=0;" edge="1" parent="1" source="8bxy5ocWBp-4JKRfcmko-1" target="8bxy5ocWBp-4JKRfcmko-2">
          <mxGeometry width="50" height="50" relative="1" as="geometry">
            <mxPoint x="290" y="170" as="sourcePoint" />
            <mxPoint x="200" y="110" as="targetPoint" />
            <Array as="points">
              <mxPoint x="280" y="140" />
            </Array>
          </mxGeometry>
        </mxCell>
        <mxCell id="8bxy5ocWBp-4JKRfcmko-17" value="Estimated Time" style="text;html=1;align=center;verticalAlign=middle;resizable=0;points=[];autosize=1;strokeColor=none;fillColor=none;" vertex="1" parent="1">
          <mxGeometry x="225" y="110" width="110" height="30" as="geometry" />
        </mxCell>
        <mxCell id="8bxy5ocWBp-4JKRfcmko-18" value="" style="endArrow=classic;html=1;rounded=0;exitX=0.823;exitY=1.013;exitDx=0;exitDy=0;exitPerimeter=0;entryX=0.458;entryY=0.929;entryDx=0;entryDy=0;entryPerimeter=0;" edge="1" parent="1" source="8bxy5ocWBp-4JKRfcmko-2" target="8bxy5ocWBp-4JKRfcmko-1">
          <mxGeometry width="50" height="50" relative="1" as="geometry">
            <mxPoint x="220" y="330" as="sourcePoint" />
            <mxPoint x="320" y="330" as="targetPoint" />
            <Array as="points">
              <mxPoint x="280" y="330" />
            </Array>
          </mxGeometry>
        </mxCell>
        <mxCell id="8bxy5ocWBp-4JKRfcmko-19" value="Final destination" style="text;html=1;align=center;verticalAlign=middle;resizable=0;points=[];autosize=1;strokeColor=none;fillColor=none;" vertex="1" parent="1">
          <mxGeometry x="215" y="328" width="110" height="30" as="geometry" />
        </mxCell>
        <mxCell id="8bxy5ocWBp-4JKRfcmko-21" value="" style="endArrow=classic;html=1;rounded=0;entryX=0.971;entryY=0.343;entryDx=0;entryDy=0;entryPerimeter=0;exitX=0.015;exitY=0.323;exitDx=0;exitDy=0;exitPerimeter=0;" edge="1" parent="1" source="8bxy5ocWBp-4JKRfcmko-3" target="8bxy5ocWBp-4JKRfcmko-1">
          <mxGeometry width="50" height="50" relative="1" as="geometry">
            <mxPoint x="570" y="280" as="sourcePoint" />
            <mxPoint x="620" y="230" as="targetPoint" />
          </mxGeometry>
        </mxCell>
        <mxCell id="8bxy5ocWBp-4JKRfcmko-22" value="" style="endArrow=classic;html=1;rounded=0;exitX=1.004;exitY=0.664;exitDx=0;exitDy=0;exitPerimeter=0;entryX=-0.012;entryY=0.677;entryDx=0;entryDy=0;entryPerimeter=0;" edge="1" parent="1" source="8bxy5ocWBp-4JKRfcmko-1" target="8bxy5ocWBp-4JKRfcmko-3">
          <mxGeometry width="50" height="50" relative="1" as="geometry">
            <mxPoint x="540" y="368" as="sourcePoint" />
            <mxPoint x="590" y="318" as="targetPoint" />
          </mxGeometry>
        </mxCell>
        <mxCell id="8bxy5ocWBp-4JKRfcmko-23" value="Routes" style="text;html=1;align=center;verticalAlign=middle;resizable=0;points=[];autosize=1;strokeColor=none;fillColor=none;" vertex="1" parent="1">
          <mxGeometry x="520" y="188" width="60" height="30" as="geometry" />
        </mxCell>
        <mxCell id="8bxy5ocWBp-4JKRfcmko-24" value="User Destination" style="text;html=1;align=center;verticalAlign=middle;resizable=0;points=[];autosize=1;strokeColor=none;fillColor=none;" vertex="1" parent="1">
          <mxGeometry x="485" y="238" width="110" height="30" as="geometry" />
        </mxCell>
      </root>
    </mxGraphModel>
  </diagram>
</mxfile>
